<svg width="144" height="48" viewBox="0 0 144 48" fill="none" xmlns="http://www.w3.org/2000/svg">
<g clip-path="url(#clip0_6256_54014)">
<g clip-path="url(#clip1_6256_54014)">
<path d="M24.1081 47.8368C10.8529 47.8368 0.0600586 37.1088 0.0600586 23.9184C0.0600586 10.728 10.8529 0 24.1081 0C25.0945 0 25.8937 0.7992 25.8937 1.7784C25.8937 2.7576 25.0945 3.5568 24.1081 3.5568C12.8185 3.5568 3.63126 12.6936 3.63126 23.9184C3.63126 35.1432 12.8185 44.28 24.1081 44.28C35.3977 44.28 44.5849 35.1432 44.5849 23.9184C44.5849 22.9392 45.3841 22.14 46.3705 22.14C47.3569 22.14 48.1561 22.9392 48.1561 23.9184C48.1561 37.1016 37.3633 47.8368 24.1081 47.8368Z" fill="#28B4FF"/>
<path d="M46.3777 19.9657C47.4289 19.9657 48.2857 19.1161 48.2857 18.0649C48.2857 17.0137 47.4289 16.1641 46.3777 16.1641C45.3265 16.1641 44.4697 17.0137 44.4697 18.0649C44.4697 19.1161 45.3265 19.9657 46.3777 19.9657Z" fill="#28B4FF"/>
</g>
<path d="M80.0801 22.4108H78.3601C78.0101 22.4108 77.7801 22.2208 77.6801 21.8508C77.5801 21.0808 77.5101 20.4508 77.4701 19.9608H70.5801V25.8808H77.8301V28.9608H70.5801V34.9908H77.4701C77.5101 34.5008 77.5801 33.8708 77.6801 33.1008C77.7801 32.7308 78.0101 32.5408 78.3601 32.5408H80.0801V38.1908H64.3401V36.4508C64.3401 35.9608 64.5901 35.6508 65.0801 35.5308L65.2601 35.5008C65.3201 35.5008 65.3801 35.5008 65.4501 35.4708C65.5201 35.4508 65.6001 35.4308 65.7001 35.4108L66.5901 35.2608V19.7308L65.7001 19.5808C65.6001 19.5608 65.5201 19.5408 65.4501 19.5208C65.3801 19.5008 65.3201 19.4908 65.2601 19.4908L65.0801 19.4608C64.5901 19.3408 64.3401 19.0408 64.3401 18.5408V16.8008H80.0801V22.4208V22.4108Z" fill="#28B4FF"/>
<path d="M89.4301 36.4297V38.1697H81.3V36.4297C81.3 35.9397 81.5501 35.6297 82.0401 35.5097L82.2201 35.4797L82.66 35.3897L83.55 35.2397V19.1197L82.66 18.9697C82.56 18.9497 82.48 18.9297 82.41 18.9097C82.34 18.8897 82.2801 18.8797 82.2201 18.8797L82.0401 18.8497C81.5501 18.7297 81.3 18.4297 81.3 17.9297V16.1797H87.19V35.2297L88.08 35.3797L88.5201 35.4697L88.7001 35.4997C89.1901 35.6197 89.44 35.9197 89.44 36.4197L89.4301 36.4297Z" fill="#28B4FF"/>
<path d="M107.56 24.7517C107.56 25.2417 107.31 25.5517 106.82 25.6717C106.74 25.6717 106.62 25.6917 106.47 25.7317C106.31 25.7717 105.97 25.8417 105.44 25.9417L98.4301 42.3617C98.3101 42.6417 98.1601 42.8317 97.9901 42.9517C97.8501 43.0717 97.6001 43.1317 97.2201 43.1317H94.5001L97.3401 37.0717L92.4601 25.9517C91.9301 25.8517 91.5801 25.7817 91.4301 25.7417C91.2701 25.7017 91.1501 25.6817 91.0801 25.6817C90.5901 25.5617 90.3401 25.2617 90.3401 24.7617V23.0117H97.7301V24.7617C97.7301 25.2517 97.4801 25.5617 96.9901 25.6817L96.2801 25.8017L98.6801 31.5717C98.7601 31.7517 98.8201 31.9117 98.8601 32.0417C98.9001 32.1817 98.9301 32.2917 98.9501 32.3717C98.9901 32.5117 99.0601 32.7817 99.1601 33.2017L99.4301 32.3717C99.5501 32.0217 99.6501 31.7517 99.7301 31.5717L101.95 25.8617L100.94 25.6817C100.45 25.5617 100.2 25.2617 100.2 24.7617V23.0117H107.59V24.7617L107.56 24.7517Z" fill="#28B4FF"/>
<path d="M119.51 33.3612C119.51 34.0712 119.37 34.7513 119.1 35.4013C118.82 36.0113 118.44 36.5412 117.95 37.0012C117.42 37.4712 116.79 37.8212 116.06 38.0312C115.35 38.2912 114.48 38.4112 113.46 38.4112C112.57 38.4112 111.7 38.3312 110.84 38.1712C109.98 38.0112 109.25 37.8213 108.64 37.5813V33.2913H110.36C110.71 33.2913 110.94 33.4812 111.04 33.8512C111.08 34.0712 111.15 34.6512 111.25 35.6012C111.78 35.7612 112.58 35.8412 113.65 35.8412C114.06 35.8412 114.44 35.7912 114.77 35.6912C115.11 35.5712 115.36 35.4312 115.54 35.2812C115.78 35.0812 115.92 34.9013 115.98 34.7213C116.06 34.5013 116.1 34.2712 116.1 34.0112C116.1 33.6612 116 33.3713 115.8 33.1513C115.62 32.9513 115.34 32.7613 114.94 32.5613C114.57 32.3813 114.17 32.2312 113.76 32.1212L112.37 31.6812C112.05 31.5812 111.6 31.3913 111.01 31.1213C110.54 30.9012 110.13 30.6412 109.8 30.3212C109.45 30.0112 109.17 29.6112 108.97 29.1412C108.75 28.6512 108.64 28.0812 108.64 27.4212C108.64 26.7612 108.76 26.2012 108.99 25.6512C109.23 25.1012 109.59 24.6012 110.08 24.1712C110.57 23.7412 111.17 23.4012 111.88 23.1612C112.65 22.9012 113.47 22.7812 114.34 22.7812C115.09 22.7812 115.75 22.8312 116.32 22.9412C116.89 23.0512 117.71 23.2612 118.78 23.5812H118.75V27.8713H117.06C116.7 27.8713 116.48 27.6812 116.38 27.3112C116.32 27.0512 116.25 26.5012 116.17 25.6512C115.72 25.5112 115.12 25.4412 114.39 25.4412C113.66 25.4412 113.12 25.5912 112.7 25.8812C112.28 26.1712 112.08 26.5812 112.08 27.0912C112.08 27.3912 112.19 27.6612 112.41 27.9212C112.57 28.1012 112.84 28.2812 113.24 28.4812C113.69 28.7012 114.09 28.8513 114.42 28.9513C114.58 28.9913 115.03 29.1312 115.78 29.3612C116.15 29.4812 116.62 29.6712 117.17 29.9212C117.64 30.1412 118.04 30.3912 118.35 30.6912C118.7 30.9913 118.98 31.3512 119.18 31.7812C119.4 32.2513 119.51 32.7812 119.51 33.3512V33.3612Z" fill="#28B4FF"/>
<path d="M128.56 36.4288V38.1687H120.43V36.4288C120.43 35.9388 120.68 35.6287 121.17 35.5087L121.35 35.4788L121.79 35.3888L122.68 35.2388V25.9188L121.79 25.7688C121.69 25.7488 121.61 25.7288 121.54 25.7087C121.47 25.6887 121.41 25.6788 121.35 25.6788L121.17 25.6488C120.68 25.5288 120.43 25.2288 120.43 24.7288V22.9788H126.32V35.2288L127.21 35.3788C127.31 35.3988 127.39 35.4187 127.46 35.4387C127.53 35.4587 127.59 35.4688 127.65 35.4688L127.83 35.4988C128.32 35.6188 128.57 35.9187 128.57 36.4187L128.56 36.4288ZM126.67 19.4488C126.55 19.7288 126.38 19.9688 126.17 20.1888C125.93 20.4288 125.69 20.5888 125.43 20.6888C125.13 20.8088 124.83 20.8688 124.51 20.8688C124.19 20.8688 123.89 20.8088 123.59 20.6888C123.35 20.5888 123.12 20.4188 122.88 20.1888C122.66 19.9688 122.5 19.7288 122.38 19.4488C122.26 19.1688 122.2 18.8788 122.2 18.5588C122.2 18.2388 122.26 17.9388 122.38 17.6388C122.48 17.3788 122.65 17.1388 122.88 16.8988C123.1 16.6788 123.33 16.5288 123.59 16.4288C123.94 16.2888 124.25 16.2188 124.51 16.2188C124.77 16.2188 125.07 16.2888 125.43 16.4288C125.73 16.5488 125.97 16.7088 126.17 16.8988C126.41 17.1388 126.57 17.3788 126.67 17.6388C126.81 17.9788 126.88 18.2788 126.88 18.5588C126.88 18.8388 126.81 19.1288 126.67 19.4488Z" fill="#28B4FF"/>
<path d="M143.94 36.4002V38.1402H140.45C140.08 38.1402 139.8 38.0902 139.62 37.9902C139.42 37.9102 139.27 37.6902 139.18 37.3402L138.85 36.2802C138.45 36.6502 138.08 36.9602 137.73 37.2002C137.45 37.4002 137.07 37.6102 136.58 37.8502C136.23 38.0102 135.81 38.1402 135.34 38.2302C134.85 38.3302 134.35 38.3802 133.86 38.3802C133.21 38.3802 132.62 38.2902 132.08 38.1102C131.51 37.9102 131.05 37.6602 130.69 37.3402C130.28 36.9702 129.97 36.5302 129.77 36.0402C129.55 35.5102 129.44 34.9202 129.44 34.2602C129.44 33.6702 129.59 33.1002 129.88 32.5402C130.18 31.9702 130.68 31.4702 131.39 31.0302C132.14 30.5602 133.07 30.1802 134.17 29.9102C135.33 29.6102 136.78 29.4702 138.52 29.4702V28.5802C138.52 27.5902 138.3 26.8302 137.87 26.3002C137.46 25.8102 136.84 25.5602 136.01 25.5602C135.38 25.5602 134.89 25.6302 134.53 25.7702C134.08 25.9502 133.73 26.1102 133.49 26.2402L132.69 26.6802C132.47 26.8202 132.21 26.8902 131.89 26.8902C131.63 26.8902 131.42 26.8302 131.24 26.7102C131.12 26.6302 130.98 26.4702 130.83 26.2402L130.15 25.0902C131.93 23.4702 134.02 22.6602 136.45 22.6602C137.34 22.6602 138.14 22.8102 138.85 23.1002C139.54 23.4002 140.12 23.8002 140.59 24.3102C141.12 24.9202 141.5 25.5402 141.71 26.1702C141.95 26.8802 142.06 27.6702 142.06 28.5402V35.2502L142.86 35.4002L143.19 35.4602C143.68 35.5802 143.93 35.8802 143.93 36.3802L143.94 36.4002ZM135.87 31.9102C135.14 32.0702 134.56 32.2502 134.13 32.4402C133.7 32.6402 133.39 32.8702 133.21 33.1502C133.03 33.4102 132.94 33.7102 132.94 34.0702C132.94 34.7402 133.13 35.2002 133.5 35.4602C133.89 35.7402 134.39 35.8702 134.98 35.8702C135.35 35.8702 135.7 35.8402 136.01 35.7802C136.35 35.7202 136.65 35.6102 136.93 35.4502C137.28 35.2502 137.55 35.0902 137.73 34.9502C138.01 34.7302 138.27 34.5002 138.53 34.2402V31.7002C137.43 31.7002 136.54 31.7702 135.87 31.9102Z" fill="#28B4FF"/>
<path d="M37.4301 24.2892C37.4301 22.6592 36.4601 21.1892 34.9901 20.5392C35.3201 19.9392 35.5001 19.2492 35.5001 18.5392C35.5001 16.2392 33.6301 14.3692 31.3301 14.3692C31.2901 14.3692 31.2501 14.3692 31.2101 14.3692C31.2201 14.2592 31.2301 14.1392 31.2301 14.0192C31.2301 12.3292 29.8501 10.9492 28.1601 10.9492C26.4701 10.9492 25.0901 12.3292 25.0901 14.0192V33.0292C25.0901 35.2192 26.8701 36.9992 29.0601 36.9992C31.2501 36.9992 32.9601 35.2892 33.0301 33.1592C34.7901 32.8392 36.0801 31.3092 36.0801 29.4992C36.0801 28.8492 35.9101 28.2292 35.6001 27.6692C36.7001 26.9392 37.4301 25.6792 37.4301 24.2592V24.2892Z" fill="#28B4FF"/>
<path d="M12.6701 27.7005C12.3601 28.2605 12.1901 28.8805 12.1901 29.5305C12.1901 31.3405 13.4901 32.8705 15.2401 33.1905C15.3101 35.3205 17.0601 37.0305 19.2101 37.0305C21.4001 37.0305 23.1801 35.2505 23.1801 33.0605V23.8105V22.7005V14.0505C23.1801 12.3605 21.8001 10.9805 20.1101 10.9805C18.4201 10.9805 17.0401 12.3605 17.0401 14.0505C17.0401 14.1705 17.0401 14.2805 17.0601 14.4005C17.0201 14.4005 16.9801 14.4005 16.9401 14.4005C14.6401 14.4005 12.7701 16.2705 12.7701 18.5705C12.7701 19.2805 12.9501 19.9605 13.2801 20.5705C11.8101 21.2205 10.8401 22.6905 10.8401 24.3205C10.8401 25.7405 11.5701 26.9905 12.6701 27.7305V27.7005Z" fill="#002244"/>
<path d="M30.0501 20.5797C31.2651 20.5797 32.2501 19.5947 32.2501 18.3797C32.2501 17.1647 31.2651 16.1797 30.0501 16.1797C28.8351 16.1797 27.8501 17.1647 27.8501 18.3797C27.8501 19.5947 28.8351 20.5797 30.0501 20.5797Z" stroke="white" stroke-width="1.04" stroke-linecap="round" stroke-linejoin="round"/>
<path d="M30.0501 32.6187C31.2651 32.6187 32.2501 31.6338 32.2501 30.4188C32.2501 29.2037 31.2651 28.2188 30.0501 28.2188C28.8351 28.2188 27.8501 29.2037 27.8501 30.4188C27.8501 31.6338 28.8351 32.6187 30.0501 32.6187Z" stroke="white" stroke-width="1.04" stroke-linecap="round" stroke-linejoin="round"/>
<path d="M32.25 26.5992C33.4651 26.5992 34.45 25.6142 34.45 24.3992C34.45 23.1842 33.4651 22.1992 32.25 22.1992C31.035 22.1992 30.05 23.1842 30.05 24.3992C30.05 25.6142 31.035 26.5992 32.25 26.5992Z" stroke="white" stroke-width="1.04" stroke-linecap="round" stroke-linejoin="round"/>
<path d="M27.85 18.3789H24.25" stroke="white" stroke-width="1.04" stroke-linecap="round" stroke-linejoin="round"/>
<path d="M30.0501 24.3984H23.8201" stroke="white" stroke-width="1.04" stroke-linecap="round" stroke-linejoin="round"/>
<path d="M27.85 30.4219H24.25" stroke="white" stroke-width="1.04" stroke-linecap="round" stroke-linejoin="round"/>
</g>
<defs>
<clipPath id="clip0_6256_54014">
<rect width="143.88" height="48" fill="white" transform="translate(0.0600586)"/>
</clipPath>
<clipPath id="clip1_6256_54014">
<rect width="48.2256" height="47.8368" fill="white" transform="translate(0.0600586)"/>
</clipPath>
</defs>
</svg>
