<svg width="48" height="48" viewBox="0 0 48 48" fill="none" xmlns="http://www.w3.org/2000/svg">
<g clip-path="url(#clip0_6256_54026)">
<g clip-path="url(#clip1_6256_54026)">
<path d="M23.8542 47.8368C10.7058 47.8368 0 37.1088 0 23.9184C0 10.728 10.7058 0 23.8542 0C24.8326 0 25.6254 0.7992 25.6254 1.7784C25.6254 2.7576 24.8326 3.5568 23.8542 3.5568C12.6556 3.5568 3.54242 12.6936 3.54242 23.9184C3.54242 35.1432 12.6556 44.28 23.8542 44.28C35.0528 44.28 44.1659 35.1432 44.1659 23.9184C44.1659 22.9392 44.9587 22.14 45.9372 22.14C46.9156 22.14 47.7084 22.9392 47.7084 23.9184C47.7084 37.1016 37.0026 47.8368 23.8542 47.8368Z" fill="#28B4FF"/>
<path d="M45.9444 19.9657C46.9871 19.9657 47.837 19.1161 47.837 18.0649C47.837 17.0137 46.9871 16.1641 45.9444 16.1641C44.9017 16.1641 44.0518 17.0137 44.0518 18.0649C44.0518 19.1161 44.9017 19.9657 45.9444 19.9657Z" fill="#28B4FF"/>
</g>
<path d="M12.5084 27.7005C12.2009 28.2605 12.0322 28.8805 12.0322 29.5305C12.0322 31.3405 13.3218 32.8705 15.0577 33.1905C15.1271 35.3205 16.863 37.0305 18.9957 37.0305C21.168 37.0305 22.9337 35.2505 22.9337 33.0605V23.8105V22.7005V14.0505C22.9337 12.3605 21.5648 10.9805 19.8884 10.9805C18.212 10.9805 16.8431 12.3605 16.8431 14.0505C16.8431 14.1705 16.8431 14.2805 16.863 14.4005C16.8233 14.4005 16.7836 14.4005 16.744 14.4005C14.4625 14.4005 12.6076 16.2705 12.6076 18.5705C12.6076 19.2805 12.7861 19.9605 13.1135 20.5705C11.6553 21.2205 10.6931 22.6905 10.6931 24.3205C10.6931 25.7405 11.4172 26.9905 12.5084 27.7305V27.7005Z" fill="#002244"/>
<path d="M37.0688 24.2888C37.0688 22.6588 36.1165 21.1987 34.6484 20.5487C34.9758 19.9387 35.1543 19.2587 35.1543 18.5487C35.1543 16.2487 33.2994 14.3787 31.0278 14.3787C30.9882 14.3787 30.9485 14.3888 30.9088 14.3888C30.9187 14.2688 30.9286 14.1587 30.9286 14.0387C30.9286 12.3487 29.5598 10.9688 27.8834 10.9688C26.207 10.9688 24.8381 12.3487 24.8381 14.0387V33.0487C24.8381 35.2387 26.6038 37.0187 28.7761 37.0187C30.9485 37.0187 32.6447 35.3187 32.7141 33.1887C34.45 32.8687 35.7396 31.3388 35.7396 29.5288C35.7396 28.8788 35.5709 28.2587 35.2634 27.6987C36.3546 26.9587 37.0688 25.7088 37.0688 24.2888Z" fill="#28B4FF"/>
<path d="M29.7482 15.6602C28.4389 15.6602 27.3378 16.6102 27.0998 17.8602H24.8381V18.9002H27.0998C27.3378 20.1502 28.4389 21.1002 29.7482 21.1002C31.2361 21.1002 32.4562 19.8802 32.4562 18.3802C32.4562 16.8802 31.2361 15.6602 29.7482 15.6602ZM29.7482 20.0602C28.8357 20.0602 28.0818 19.3102 28.0818 18.3802C28.0818 17.4502 28.8357 16.7002 29.7482 16.7002C30.6608 16.7002 31.4147 17.4502 31.4147 18.3802C31.4147 19.3102 30.6707 20.0602 29.7482 20.0602Z" fill="white"/>
<path d="M31.9404 21.6797C30.6211 21.6797 29.5201 22.6297 29.282 23.8797H24.8381V24.9197H29.282C29.5201 26.1697 30.6211 27.1197 31.9404 27.1197C33.4283 27.1197 34.6385 25.8997 34.6385 24.3997C34.6385 22.8997 33.4283 21.6797 31.9404 21.6797ZM31.9404 26.0797C31.0179 26.0797 30.264 25.3297 30.264 24.3997C30.264 23.4697 31.0179 22.7197 31.9404 22.7197C32.8629 22.7197 33.6069 23.4697 33.6069 24.3997C33.6069 25.3297 32.853 26.0797 31.9404 26.0797Z" fill="white"/>
<path d="M29.7482 27.6992C28.4389 27.6992 27.3378 28.6492 27.0998 29.8992H24.8381V30.9392H27.0998C27.3378 32.1892 28.4389 33.1392 29.7482 33.1392C31.2361 33.1392 32.4562 31.9192 32.4562 30.4192C32.4562 28.9192 31.2361 27.6992 29.7482 27.6992ZM29.7482 32.0992C28.8357 32.0992 28.0818 31.3492 28.0818 30.4192C28.0818 29.4892 28.8357 28.7392 29.7482 28.7392C30.6608 28.7392 31.4147 29.4992 31.4147 30.4192C31.4147 31.3392 30.6707 32.0992 29.7482 32.0992Z" fill="white"/>
</g>
<defs>
<clipPath id="clip0_6256_54026">
<rect width="48" height="48" fill="white"/>
</clipPath>
<clipPath id="clip1_6256_54026">
<rect width="47.8369" height="47.8368" fill="white"/>
</clipPath>
</defs>
</svg>
