<svg width="24" height="24" viewBox="0 0 24 24" fill="none" xmlns="http://www.w3.org/2000/svg">
<circle cx="12" cy="12" r="12" fill="#11A7D9"/>
<path d="M10.0003 18H16.0003C16.5537 18 17.027 17.6666 17.227 17.1866L19.2403 12.4866C19.3003 12.3333 19.3337 12.1733 19.3337 12V10.6666C19.3337 9.93329 18.7337 9.33329 18.0003 9.33329H13.7937L14.427 6.28663L14.447 6.07329C14.447 5.79996 14.3337 5.54663 14.1537 5.36663L13.447 4.66663L9.05366 9.05996C8.81366 9.29996 8.66699 9.63329 8.66699 9.99996V16.6666C8.66699 17.4 9.26699 18 10.0003 18ZM10.0003 9.99996L12.8937 7.10663L12.0003 10.6666H18.0003V12L16.0003 16.6666H10.0003V9.99996ZM4.66699 9.99996H7.33366V18H4.66699V9.99996Z" fill="white"/>
</svg>
