<svg width="20" height="20" viewBox="0 0 20 20" fill="none" xmlns="http://www.w3.org/2000/svg">
<path d="M10 15L13.3333 11.6667L12.1667 10.5L10.8333 11.8333V8.33333H9.16667V11.8333L7.83333 10.5L6.66667 11.6667L10 15ZM4.16667 6.66667V15.8333H15.8333V6.66667H4.16667ZM4.16667 17.5C3.70833 17.5 3.31597 17.3368 2.98958 17.0104C2.66319 16.684 2.5 16.2917 2.5 15.8333V5.4375C2.5 5.24306 2.53125 5.05556 2.59375 4.875C2.65625 4.69444 2.75 4.52778 2.875 4.375L3.91667 3.10417C4.06944 2.90972 4.26042 2.76042 4.48958 2.65625C4.71875 2.55208 4.95833 2.5 5.20833 2.5H14.7917C15.0417 2.5 15.2812 2.55208 15.5104 2.65625C15.7396 2.76042 15.9306 2.90972 16.0833 3.10417L17.125 4.375C17.25 4.52778 17.3438 4.69444 17.4062 4.875C17.4688 5.05556 17.5 5.24306 17.5 5.4375V15.8333C17.5 16.2917 17.3368 16.684 17.0104 17.0104C16.684 17.3368 16.2917 17.5 15.8333 17.5H4.16667ZM4.5 5H15.5L14.7917 4.16667H5.20833L4.5 5Z" fill="#002244"/>
</svg>
