<svg width="24" height="24" viewBox="0 0 24 24" fill="none" xmlns="http://www.w3.org/2000/svg">
<circle cx="12" cy="12" r="12" fill="#11A7D9"/>
<path d="M14.0003 5.33331H8.00033C7.44699 5.33331 6.97366 5.66665 6.77366 6.14665L4.76033 10.8466C4.70033 11 4.66699 11.16 4.66699 11.3333V12.6666C4.66699 13.4 5.26699 14 6.00033 14H10.207L9.57366 17.0466L9.55366 17.26C9.55366 17.5333 9.66699 17.7866 9.84699 17.9666L10.5537 18.6666L14.947 14.2733C15.187 14.0333 15.3337 13.7 15.3337 13.3333V6.66665C15.3337 5.93331 14.7337 5.33331 14.0003 5.33331ZM14.0003 13.3333L11.107 16.2266L12.0003 12.6666H6.00033V11.3333L8.00033 6.66665H14.0003V13.3333ZM16.667 5.33331H19.3337V13.3333H16.667V5.33331Z" fill="white"/>
</svg>
